<svg width="26" height="26" viewBox="0 0 26 26" fill="none" xmlns="http://www.w3.org/2000/svg">
<path fill-rule="evenodd" clip-rule="evenodd" d="M13.0001 6.5C13.2155 6.5 13.4222 6.5856 13.5746 6.73798C13.7269 6.89035 13.8126 7.09701 13.8126 7.3125V16.7261L17.2998 13.2372C17.3753 13.1617 17.465 13.1018 17.5637 13.0609C17.6624 13.02 17.7682 12.999 17.8751 12.999C17.9819 12.999 18.0877 13.02 18.1864 13.0609C18.2851 13.1018 18.3748 13.1617 18.4503 13.2372C18.5258 13.3128 18.5858 13.4025 18.6267 13.5012C18.6675 13.5999 18.6886 13.7057 18.6886 13.8125C18.6886 13.9193 18.6675 14.0251 18.6267 14.1238C18.5858 14.2225 18.5258 14.3122 18.4503 14.3878L13.5753 19.2628C13.4998 19.3384 13.4102 19.3984 13.3115 19.4394C13.2127 19.4804 13.1069 19.5015 13.0001 19.5015C12.8932 19.5015 12.7874 19.4804 12.6886 19.4394C12.5899 19.3984 12.5003 19.3384 12.4248 19.2628L7.5498 14.3878C7.47426 14.3122 7.41433 14.2225 7.37345 14.1238C7.33257 14.0251 7.31152 13.9193 7.31152 13.8125C7.31152 13.7057 7.33257 13.5999 7.37345 13.5012C7.41433 13.4025 7.47426 13.3128 7.5498 13.2372C7.70237 13.0847 7.90929 12.999 8.12505 12.999C8.23188 12.999 8.33767 13.02 8.43637 13.0609C8.53508 13.1018 8.62476 13.1617 8.7003 13.2372L12.1876 16.7261V7.3125C12.1876 7.09701 12.2732 6.89035 12.4255 6.73798C12.5779 6.5856 12.7846 6.5 13.0001 6.5Z" fill="#2C2B58"/>
</svg>
