<svg width="46" height="46" viewBox="0 0 46 46" fill="none" xmlns="http://www.w3.org/2000/svg">
<path d="M36.417 21.0833H13.6853L20.6428 12.7267C20.9682 12.3353 21.1247 11.8306 21.0779 11.3238C21.0312 10.817 20.7851 10.3495 20.3937 10.0242C20.0022 9.69883 19.4976 9.54232 18.9908 9.58904C18.484 9.63577 18.0165 9.88192 17.6912 10.2733L8.10783 21.7733C8.04335 21.8648 7.98569 21.9609 7.93533 22.0608C7.93533 22.1567 7.93533 22.2142 7.80116 22.31C7.71428 22.5298 7.6688 22.7637 7.66699 23C7.6688 23.2363 7.71428 23.4702 7.80116 23.69C7.80116 23.7858 7.80116 23.8433 7.93533 23.9392C7.98569 24.0391 8.04335 24.1352 8.10783 24.2267L17.6912 35.7267C17.8714 35.943 18.097 36.117 18.3521 36.2363C18.6072 36.3555 18.8854 36.4171 19.167 36.4167C19.6148 36.4175 20.0488 36.2616 20.3937 35.9758C20.5877 35.8149 20.7482 35.6173 20.8658 35.3943C20.9833 35.1713 21.0558 34.9273 21.0789 34.6763C21.1021 34.4252 21.0755 34.1721 21.0006 33.9314C20.9258 33.6906 20.8042 33.467 20.6428 33.2733L13.6853 24.9167H36.417C36.9253 24.9167 37.4128 24.7147 37.7723 24.3553C38.1317 23.9958 38.3337 23.5083 38.3337 23C38.3337 22.4917 38.1317 22.0042 37.7723 21.6447C37.4128 21.2853 36.9253 21.0833 36.417 21.0833Z" fill="#2C2B58"/>
</svg>
