<svg width="90" height="90" viewBox="0 0 90 90" fill="none" xmlns="http://www.w3.org/2000/svg">
<circle cx="45" cy="45" r="45" fill="#FF3981"/>
<path d="M30.5783 30.5781C31.1058 30.0509 31.821 29.7547 32.5668 29.7547C33.3126 29.7547 34.0278 30.0509 34.5552 30.5781L44.5002 40.5231L54.4452 30.5781C54.9757 30.0658 55.6861 29.7823 56.4235 29.7887C57.161 29.7951 57.8664 30.0909 58.3878 30.6124C58.9093 31.1339 59.2051 31.8393 59.2115 32.5767C59.2179 33.3141 58.9344 34.0246 58.4221 34.555L48.4771 44.5L58.4221 54.445C58.9344 54.9754 59.2179 55.6859 59.2115 56.4233C59.2051 57.1607 58.9093 57.8662 58.3878 58.3876C57.8664 58.9091 57.161 59.2049 56.4235 59.2113C55.6861 59.2177 54.9757 58.9342 54.4452 58.4219L44.5002 48.4769L34.5552 58.4219C34.0248 58.9342 33.3143 59.2177 32.5769 59.2113C31.8395 59.2049 31.1341 58.9091 30.6126 58.3876C30.0911 57.8662 29.7954 57.1607 29.7889 56.4233C29.7825 55.6859 30.066 54.9754 30.5783 54.445L40.5233 44.5L30.5783 34.555C30.0511 34.0276 29.7549 33.3123 29.7549 32.5666C29.7549 31.8208 30.0511 31.1056 30.5783 30.5781V30.5781Z" fill="white"/>
</svg>
