<svg width="48" height="48" viewBox="0 0 48 48" fill="none" xmlns="http://www.w3.org/2000/svg">
<path d="M0.3612 5.14406C0.665085 4.50249 1.14489 3.96039 1.74481 3.58082C2.34472 3.20126 3.04008 2.99984 3.74998 3H44.25C45.7031 3 47.0156 3.83438 47.6344 5.14406C48.2625 6.45375 48.0656 8.00344 47.0719 9.12469L30 30.0844V42C30 43.1344 29.3625 44.175 28.3406 44.6813C27.3281 45.1875 26.1094 45.0844 25.2 44.4L19.2 39.9C18.4406 39.3375 18 38.4469 18 37.5V30.0844L0.847669 9.12469C0.398132 8.57526 0.113784 7.90951 0.0276851 7.20485C-0.0584142 6.50019 0.0572721 5.78557 0.361294 5.14406H0.3612Z" fill="white"/>
</svg>
