<svg width="364" height="233" viewBox="0 0 364 233" fill="none" xmlns="http://www.w3.org/2000/svg">
<path d="M349 215C349 218.314 346.538 221 343.5 221C340.462 221 338 218.314 338 215C338 211.686 340.462 209 343.5 209C346.538 209 349 211.686 349 215Z" fill="#D3C1F9"/>
<path d="M18 215C18 218.314 15.3137 221 12 221C8.68629 221 6 218.314 6 215C6 211.686 8.68629 209 12 209C15.3137 209 18 211.686 18 215Z" fill="#D3C1F9"/>
<path d="M255.213 24.907C250.628 26.4028 247.714 28.1911 244.243 31.6702C239.004 36.9051 235.599 43.6357 232.291 55.2113C228.46 68.6725 225.087 91.4332 225.087 103.886C225.087 108.243 224.793 109.479 223.778 109.479C222.664 109.479 220.667 107.171 212.873 96.7982C208.78 91.3356 203.869 84.8975 201.969 82.4265C197.778 77.094 197.156 76.0859 196.272 73.4848C195.322 70.6884 194.209 69.8105 191.72 69.8105C189.002 69.8105 187.005 70.5909 185.171 72.3791C182.486 74.9805 181.078 78.297 179.736 85.1903C177.443 96.8307 176.887 103.431 177.018 116.957L177.116 127.525L178.033 129.346C178.622 130.581 179.375 131.492 180.292 132.11C181.504 132.955 181.897 133.053 184.287 133.053C186.448 133.053 187.234 132.922 188.544 132.24C190.41 131.297 193.357 128.24 194.438 126.127C196.468 122.095 197.778 115.007 197.483 109.381C197.385 107.463 197.385 105.902 197.516 105.902C197.647 105.902 198.204 106.195 198.76 106.52C199.481 106.943 200.332 108.146 201.577 110.52C205.506 117.835 211.793 127.817 216.017 133.345C217.13 134.776 220.372 138.287 223.254 141.181C227.51 145.441 228.787 146.514 229.835 146.807C231.604 147.294 233.11 146.871 234.845 145.408C236.548 143.945 237.694 141.571 238.349 138.092C238.644 136.564 239.462 132.695 240.15 129.476C240.838 126.257 242.18 119.949 243.097 115.494C246.666 98.1313 248.467 91.8558 257.21 65.9738C263.234 48.0578 265.919 39.6038 266.641 36.0599C266.838 35.1168 267 33.0684 267 31.5076C267 28.5163 266.412 26.6303 265.166 25.5248C263.103 23.7365 259.502 23.5089 255.213 24.907Z" fill="white"/>
<path d="M164.53 0.181722C160.8 1.31148 159.72 4.33525 159.425 14.6028C159.327 17.8923 159.196 21.4145 159.131 22.4446L159 24.3386L160.211 24.538C160.865 24.6377 161.912 25.0032 162.567 25.3687L163.745 26L165.905 23.5743L168.097 21.1487L169.439 15.8654C170.486 11.7784 170.813 9.81789 170.944 6.96027C171.075 3.67068 171.009 3.20549 170.388 2.20864C169.373 0.514003 166.592 -0.416386 164.53 0.181722Z" fill="white"/>
<path d="M144.878 2.43368C140.764 3.94909 140.116 6.17172 142.027 12.1324C142.967 15.0285 147.566 25.2661 148.57 26.6468C148.991 27.2192 149.218 27.1855 152.878 25.8722C155.016 25.0977 156.862 24.3568 156.992 24.2221C157.251 23.9864 151.259 5.22878 150.449 3.64602C150.222 3.17454 149.801 2.63573 149.509 2.39999C148.829 1.86118 146.368 1.86118 144.878 2.43368Z" fill="white"/>
<path d="M169.557 22.001C167.803 23.2021 166.113 25.3376 165.539 27.0394C165.22 28.0402 165.22 28.7075 165.475 30.0421C165.89 31.9776 165.507 33.8126 164.454 35.4142C163.849 36.3149 163.849 36.3149 164.454 36.6487C165.475 37.2159 167.675 37.0824 169.142 36.3483C170.354 35.7144 171.853 33.9461 176.413 27.7734C177.402 26.4386 177.179 25.4377 175.457 23.6026C173.798 21.8341 172.555 21 171.566 21C171.247 21 170.322 21.4338 169.557 22.001Z" fill="white"/>
<path d="M154.002 27.5074C146.543 30.0934 145.957 30.5298 143.97 34.929C140.713 42.1154 141.495 48.8651 146.315 55.1112C153.351 64.2117 165.891 64.3124 175.076 55.3128C178.724 51.7531 180.71 48.6636 181.981 44.4659C182.958 41.343 184 36.3058 184 34.8954C184 34.123 181.622 31.3694 180.385 30.6978C178.886 29.9254 178.365 30.127 176.313 32.3098C172.535 36.3394 171.037 38.8915 171.59 40.3691C172.502 42.787 176.215 44.4659 177.974 43.2235C180.287 41.5782 180.45 41.511 180.189 42.1826C179.407 44.4323 177.095 45.8428 174.619 45.6079C172.307 45.3727 171.362 44.5331 170.125 41.7459L169.05 39.2946H167.486C166.607 39.2946 164.979 38.9923 163.838 38.623L161.754 37.9514L160.028 38.7574C159.05 39.2274 158.269 39.6639 158.269 39.7647C158.269 39.8655 159.018 40.8058 159.93 41.8467C163.089 45.4735 164.816 50.7459 163.708 53.4995C163.024 55.1784 162.536 55.0776 162.731 53.2979C162.926 51.4844 162.08 47.992 160.972 46.0107C159.767 43.8951 157.324 41.3095 155.37 40.1342C154.458 39.5631 153.774 38.9923 153.806 38.8243C153.872 38.623 155.728 37.6491 157.943 36.6418C162.536 34.5259 164.132 33.1827 164.132 31.4702C164.099 30.0934 163.154 27.9442 162.079 26.9366C160.646 25.5598 159.246 25.6606 154.002 27.5074Z" fill="white"/>
<path d="M333.98 40.306C323.705 42.0349 314.762 47.7438 310.211 55.5079C307.122 60.7273 306.083 67.1213 307.448 72.4712C309.202 79.4198 311.415 82.4861 324.386 95.7959C328.615 100.134 333.199 105.191 334.564 107.018C337.555 110.998 339.963 115.826 341.197 120.262C341.978 123.166 342.076 124.047 342.076 128.255C342.042 133.735 341.459 136.508 339.376 140.782C336.774 146.099 333.427 149.198 328.873 150.438C320.778 152.623 312.357 153.896 301.301 154.483C291.874 155.037 289.141 155.559 284.946 157.647C278.705 160.779 275.355 164.759 275.03 169.391C274.574 175.883 279.322 179.406 291.874 181.918C299.416 183.418 307.74 183.353 315.674 181.755C322.079 180.45 330.986 176.959 335.929 173.828C346.627 167.108 356.935 153.341 361.422 139.836C363.307 134.159 363.763 131.648 363.957 125.971C364.152 120.328 363.696 116.674 362.234 112.303C359.893 105.256 356.966 100.95 346.821 89.5978C340.839 82.9103 338.759 80.2027 335.604 75.1136C332.385 69.8942 331.54 68.1651 331.312 66.2404C331.15 64.7398 331.184 64.6092 332.418 63.3697C333.914 61.869 336.744 60.8579 338.467 61.2166C341.133 61.8037 342.304 63.761 343.082 68.8828C344.222 76.2879 347.049 79.224 352.773 78.9302C355.601 78.8 358.136 77.658 360.154 75.6681C362.723 73.091 363.274 70.938 362.723 65.4901C362.006 57.8565 360.088 51.8868 357.163 48.1025C354.722 44.9056 349.813 41.8391 345.359 40.6647C342.629 39.9471 337.133 39.7839 333.98 40.306Z" fill="white"/>
<path d="M35.6126 53.1795C29.2074 53.8 22.6709 55.6615 17.1855 58.4048C8.77677 62.5852 2.96289 68.0718 0.729299 73.8849C0.0395188 75.714 -0.0261747 76.3345 0.00667198 83.0295C0.0395188 91.2595 0.433681 94.4602 3.12713 107.85C7.2658 128.556 11.8972 141.391 20.1089 155.173C23.2622 160.431 26.0541 163.435 28.7805 164.448C34.266 166.473 44.5468 166.146 53.6782 163.631C70.3645 159.059 86.6565 147.53 92.3388 136.296L93.5214 133.977L95.0981 139.202C95.985 142.076 97.3645 147.498 98.1856 151.221C100.189 160.431 100.156 162.651 97.9885 165.427C96.5433 167.289 97.1016 169.738 99.3023 171.241C100.813 172.253 101.799 172.253 110.832 171.241C126.828 169.444 135.302 167.387 151.726 161.345C160.2 158.21 163.354 156.708 166.211 154.454C170.35 151.156 171.204 146.714 168.248 144.069C166.967 142.893 166.146 142.632 163.616 142.632C158.821 142.632 152.974 144.036 143.251 147.498C133.693 150.927 128.569 152.103 123.478 152.103C120.883 152.103 120.291 152.005 119.339 151.352C117.795 150.339 116.547 147.89 115.791 144.428C115.102 141.26 113.295 131.07 112.967 128.425L112.737 126.792L115.989 125.714C124.496 122.84 130.08 119.085 131.919 114.97C133.627 111.083 130.934 107.687 126.105 107.687C125.021 107.687 121.244 108.21 117.73 108.83C111.784 109.908 111.291 109.94 110.93 109.418C110.7 109.124 110.503 108.634 110.503 108.373C110.503 108.079 110.339 106.74 110.175 105.401C109.715 101.906 109.124 91.031 109.353 90.0185C109.616 88.8755 110.109 88.6795 117.795 86.7527C125.711 84.7932 128.799 83.65 131.985 81.5271C136.387 78.6207 138.39 75.7467 138.423 72.4482C138.423 69.1168 136.781 66.9615 133.003 65.1978C129.686 63.6628 126.598 63.4343 118.025 64.0548C113.985 64.3486 107.711 64.5773 104.098 64.5773C94.868 64.5773 90.631 65.3285 85.8681 67.8758C83.6674 69.019 81.8936 70.6191 81.0396 72.1868C80.5799 72.9707 80.4484 73.9176 80.4813 76.0078C80.5141 78.2613 81.0067 80.6782 83.0105 88.9082C84.3572 94.4602 85.441 99.065 85.4081 99.0977C85.3753 99.1303 84.6527 98.7056 83.7989 98.1831C80.6784 96.2563 75.817 94.6886 70.5945 93.9375C66.1928 93.2843 57.16 93.4476 51.7732 94.2968C45.4009 95.2438 45.0725 94.9173 47.733 90.3776C51.1163 84.6625 53.2513 79.2738 54.0067 74.6034C54.5979 70.9785 54.2696 66.047 53.2184 62.7812C50.722 54.9757 45.6637 52.2323 35.6126 53.1795ZM35.9738 73.2318C40.4083 76.0731 39.6528 83.748 34.2986 90.3125C32.1636 92.8925 24.2147 100.143 23.1965 100.404C21.9483 100.698 21.4556 99.8488 20.9958 96.6154C20.2731 91.9126 19.7804 82.0499 20.1746 80.6128C21.3571 76.1711 28.6491 71.7297 33.6417 72.3502C34.266 72.4155 35.3169 72.84 35.9738 73.2318ZM54.7622 112.88C57.3901 113.239 61.2331 114.937 63.795 116.897C66.0614 118.66 68.1966 121.534 70.0359 125.29C71.4154 128.066 71.5468 128.621 71.6782 131.201C71.8425 134.761 71.4482 136.067 69.4776 138.157C63.1381 144.885 45.4994 147.53 34.3314 143.415C30.8169 142.109 30.5869 141.783 28.3534 133.944C26.087 126.008 25.9884 124.702 27.4008 122.775C30.6198 118.334 40.1126 113.892 48.357 112.945C51.7732 112.553 52.2001 112.553 54.7622 112.88Z" fill="white"/>
<path d="M285.432 66.8762C275.175 70.2902 268.139 76.0452 261.005 86.7428C257.949 91.3599 255.548 96.3347 253.576 102.187C250.551 111.227 249.335 117.047 249.039 123.972C248.513 137.239 253.313 145.172 264.687 149.822C274.978 153.984 281.685 152.358 291.054 143.416C298.846 135.97 303.745 127.582 304.83 119.81C305.488 115.323 304.203 110.836 301.575 108.235C296.676 103.39 289.311 104.106 279.349 110.381C278.101 111.194 276.622 112.234 276.128 112.722C273.53 115.063 272.513 120.006 274.025 122.802C275.866 126.313 279.45 126.899 284.347 124.558C286.517 123.517 286.781 123.452 287.636 123.875C288.423 124.233 288.555 124.525 288.653 125.858C288.951 130.606 284.873 136.328 280.206 137.661C275.341 139.092 272.479 138.116 270.672 134.475C269.224 131.483 268.83 128.654 269.291 124.655C270.275 116.689 273.072 109.601 278.298 101.862C281.224 97.5052 284.513 93.636 290.331 87.5883C297.859 79.8496 300.094 76.2079 299.832 72.3712C299.666 70.03 298.517 68.2418 296.38 67.0063C295 66.2259 294.441 66.0958 291.515 66.0307C288.622 65.9331 287.897 66.0307 285.432 66.8762Z" fill="white"/>
<path d="M158.824 67.1917C156.556 67.6515 155.101 68.6044 153.714 70.5426C150.194 75.5363 148.705 81.8113 147.487 97.252C146.37 111.445 147.25 128.429 149.348 132.47C150.296 134.212 152.462 135.953 154.458 136.511C156.726 137.168 157.978 137.168 160.008 136.478C162.343 135.723 166.133 132.011 167.555 129.119C171.345 121.366 172.123 101.753 169.314 85.6221C168.231 79.5444 166.303 71.6595 165.49 70.0499C164.17 67.4543 162.072 66.5675 158.824 67.1917Z" fill="white"/>
<path d="M61.0493 215.524H59.7593H50.7291L51.6369 220.776H59.7593C57.8481 224.501 53.9781 227.031 49.5347 227.031C43.1801 227.031 38.0201 221.874 38.0201 215.524C38.0201 209.173 43.1801 204.016 49.5347 204.016C53.1181 204.016 56.3192 205.688 58.4215 208.266L62.7215 203.969C59.4726 200.34 54.7903 198 49.5347 198C39.8834 198 32 205.831 32 215.524C32 225.169 39.8834 233 49.5347 233C59.1859 233 67.0216 225.169 67.0216 215.524H61.0493Z" fill="#D3C1F9"/>
<path d="M98.7946 198L81.2599 233H116.281L98.7946 198ZM98.7946 209.937L107.634 227.652H89.9556L98.7946 209.937Z" fill="#D3C1F9"/>
<path d="M156.272 227.079H136.635V198H130.711V233H136.635H157.467L156.272 227.079Z" fill="#D3C1F9"/>
<path d="M197.416 227.079H177.779V198H171.854V233H177.779H198.61L197.416 227.079Z" fill="#D3C1F9"/>
<path d="M239.276 198H212.998V200.96V203.921V216.909V222.829V227.079V233H239.276V227.079H218.923V222.829H231.345L232.492 216.909H218.923V203.921H239.276V198Z" fill="#D3C1F9"/>
<path d="M280.624 211.035C280.624 203.825 274.795 198 267.629 198H253.582V200.96V203.921V233H259.458V203.921H267.629C271.546 203.921 274.748 207.12 274.748 211.035C274.748 214.951 271.546 218.15 267.629 218.15H260.462L261.656 224.023H266.291L272.884 233H280.194L272.836 222.973C277.423 220.92 280.624 216.336 280.624 211.035Z" fill="#D3C1F9"/>
<path d="M322 198H315.168L308.479 209.555L301.79 198H294.957L305.039 215.476L305.516 216.288V233H311.441V216.288L311.919 215.476L322 198Z" fill="#D3C1F9"/>
</svg>
