<svg width="42" height="42" viewBox="0 0 42 42" fill="none" xmlns="http://www.w3.org/2000/svg">
<path d="M38.5 31.5087C38.5 32.4712 37.7195 33.25 36.7587 33.25H22.7412C22.2794 33.25 21.8365 33.0665 21.51 32.74C21.1835 32.4135 21 31.9706 21 31.5087C21 31.0469 21.1835 30.604 21.51 30.2775C21.8365 29.951 22.2794 29.7675 22.7412 29.7675H36.7587C37.7212 29.7675 38.5 30.5462 38.5 31.5087V31.5087ZM38.5 21C38.5 21.9625 37.7195 22.7412 36.7587 22.7412H5.24125C4.77944 22.7412 4.33655 22.5578 4.01 22.2312C3.68345 21.9047 3.5 21.4618 3.5 21C3.5 20.5382 3.68345 20.0953 4.01 19.7688C4.33655 19.4422 4.77944 19.2588 5.24125 19.2588H36.7587C37.7212 19.2588 38.5 20.0392 38.5 21V21ZM36.7587 12.2325C37.2206 12.2325 37.6635 12.049 37.99 11.7225C38.3165 11.396 38.5 10.9531 38.5 10.4912C38.5 10.0294 38.3165 9.58655 37.99 9.26C37.6635 8.93345 37.2206 8.75 36.7587 8.75H15.7412C15.5126 8.75 15.2862 8.79504 15.0749 8.88254C14.8636 8.97005 14.6717 9.09831 14.51 9.26C14.3483 9.42169 14.2201 9.61364 14.1325 9.8249C14.045 10.0362 14 10.2626 14 10.4912C14 10.7199 14.045 10.9463 14.1325 11.1576C14.2201 11.3689 14.3483 11.5608 14.51 11.7225C14.6717 11.8842 14.8636 12.0124 15.0749 12.1C15.2862 12.1875 15.5126 12.2325 15.7412 12.2325H36.7587Z" fill="white"/>
</svg>
