<svg width="312" height="157" viewBox="0 0 312 157" fill="none" xmlns="http://www.w3.org/2000/svg">
<path d="M140.682 0.153337C137.485 1.10704 136.559 3.6596 136.306 12.3271C136.222 15.104 136.11 18.0773 136.054 18.9469L135.942 20.5457L136.98 20.714C137.541 20.7982 138.438 21.1067 138.999 21.4153L140.009 21.9482L141.861 19.9006L143.74 17.8529L144.89 13.393C145.788 9.94281 146.068 8.28786 146.18 5.87555C146.293 3.09859 146.237 2.70589 145.704 1.86439C144.834 0.433838 142.45 -0.351564 140.682 0.153337Z" fill="#2C2B58"/>
<path d="M123.487 2.48159C119.925 3.74384 119.364 5.59515 121.019 10.56C121.832 12.9723 125.815 21.4995 126.685 22.6496C127.05 23.1264 127.246 23.0984 130.416 22.0044C132.267 21.3593 133.866 20.7422 133.978 20.63C134.203 20.4336 129.013 4.80974 128.312 3.49139C128.116 3.09869 127.751 2.64989 127.498 2.45354C126.909 2.00474 124.777 2.00474 123.487 2.48159Z" fill="#2C2B58"/>
<path d="M145.115 19.1994C143.572 20.2092 142.085 22.0044 141.58 23.4349C141.3 24.2764 141.3 24.8374 141.524 25.9594C141.889 27.5864 141.552 29.1291 140.626 30.4755C140.093 31.2329 140.093 31.2329 140.626 31.5134C141.524 31.9902 143.46 31.878 144.75 31.2609C145.816 30.728 147.134 29.2413 151.146 24.052C152.015 22.93 151.819 22.0885 150.304 20.5458C148.845 19.0591 147.751 18.3579 146.882 18.3579C146.601 18.3579 145.788 18.7225 145.115 19.1994Z" fill="#2C2B58"/>
<path d="M218.637 20.8543C214.71 22.1446 212.213 23.6873 209.24 26.6887C204.751 31.2048 201.834 37.0111 199.001 46.997C195.719 58.6097 192.83 78.2447 192.83 88.9879C192.83 92.7466 192.577 93.8125 191.708 93.8125C190.754 93.8125 189.043 91.821 182.367 82.873C178.86 78.1606 174.652 72.6067 173.025 70.4749C169.435 65.8747 168.902 65.0051 168.145 62.7611C167.331 60.3488 166.377 59.5914 164.245 59.5914C161.917 59.5914 160.206 60.2646 158.635 61.8074C156.335 64.0514 155.129 66.9125 153.979 72.8591C152.015 82.9011 151.538 88.5952 151.65 100.264L151.735 109.38L152.52 110.951C153.025 112.017 153.67 112.802 154.456 113.335C155.493 114.065 155.83 114.149 157.878 114.149C159.729 114.149 160.402 114.037 161.524 113.448C163.123 112.634 165.648 109.997 166.574 108.174C168.313 104.696 169.435 98.581 169.182 93.7284C169.098 92.0734 169.098 90.727 169.211 90.727C169.323 90.727 169.8 90.9795 170.276 91.26C170.894 91.6246 171.623 92.6625 172.689 94.7101C176.055 101.021 181.441 109.633 185.059 114.401C186.013 115.635 188.79 118.665 191.259 121.161C194.905 124.836 195.999 125.762 196.897 126.014C198.412 126.435 199.702 126.07 201.189 124.808C202.648 123.546 203.629 121.498 204.19 118.497C204.443 117.178 205.144 113.84 205.733 111.063C206.322 108.286 207.472 102.845 208.258 99.0018C211.315 84.0231 212.858 78.6094 220.348 56.2815C225.509 40.8259 227.809 33.5329 228.427 30.4755C228.595 29.662 228.735 27.8949 228.735 26.5484C228.735 23.9678 228.23 22.3409 227.164 21.3872C225.397 19.8445 222.311 19.6481 218.637 20.8543Z" fill="#2C2B58"/>
<path d="M131.369 23.9398C124.946 26.0996 124.441 26.4643 122.73 30.1388C119.925 36.1416 120.598 41.7796 124.749 46.9969C130.808 54.5985 141.608 54.6827 149.519 47.1652C152.66 44.1919 154.371 41.6113 155.465 38.1051C156.307 35.4964 157.205 31.2889 157.205 30.1108C157.205 29.4656 155.157 27.1655 154.091 26.6045C152.801 25.9594 152.352 26.1277 150.585 27.9509C147.331 31.3169 146.04 33.4487 146.517 34.6829C147.303 36.7026 150.5 38.1051 152.015 37.0672C154.007 35.6928 154.147 35.6367 153.923 36.1977C153.249 38.077 151.258 39.2551 149.126 39.0588C147.134 38.8624 146.321 38.1612 145.255 35.833L144.329 33.7853H142.983C142.225 33.7853 140.823 33.5329 139.841 33.2243L138.046 32.6633L136.559 33.3365C135.717 33.7292 135.044 34.0939 135.044 34.178C135.044 34.2622 135.689 35.0476 136.475 35.9172C139.196 38.9466 140.682 43.3504 139.729 45.6505C139.14 47.053 138.719 46.9689 138.887 45.4822C139.056 43.9675 138.326 41.0503 137.372 39.3954C136.335 37.6282 134.231 35.4684 132.548 34.4866C131.762 34.0097 131.173 33.5329 131.201 33.3926C131.257 33.2243 132.856 32.4109 134.764 31.5694C138.719 29.8022 140.093 28.6802 140.093 27.2497C140.065 26.0996 139.252 24.3044 138.326 23.4629C137.092 22.3129 135.886 22.397 131.369 23.9398Z" fill="#2C2B58"/>
<path d="M286.1 34.1781C277.236 35.6648 269.522 40.5736 265.594 47.2495C262.93 51.7375 262.032 57.2353 263.21 61.8355C264.725 67.8102 266.632 70.4469 277.825 81.8913C281.471 85.622 285.427 89.9697 286.605 91.5405C289.186 94.9626 291.261 99.1141 292.327 102.929C293.001 105.425 293.085 106.183 293.085 109.801C293.057 114.514 292.552 116.898 290.756 120.572C288.512 125.145 285.623 127.809 281.696 128.875C274.711 130.755 267.446 131.848 257.908 132.353C249.774 132.83 247.417 133.279 243.799 135.074C238.413 137.767 235.524 141.189 235.243 145.172C234.85 150.754 238.946 153.784 249.774 155.944C256.281 157.234 263.463 157.178 270.307 155.803C275.833 154.681 283.519 151.68 287.783 148.987C297.012 143.209 305.904 131.372 309.775 119.759C311.402 114.878 311.795 112.718 311.963 107.838C312.131 102.985 311.739 99.8434 310.476 96.0847C308.457 90.0258 305.932 86.3232 297.18 76.5618C292.019 70.8115 290.223 68.4834 287.502 64.1076C284.725 59.6196 283.996 58.1329 283.8 56.4779C283.659 55.1876 283.688 55.0754 284.753 54.0095C286.044 52.7192 288.484 51.8497 289.971 52.1582C292.271 52.6631 293.281 54.3461 293.954 58.75C294.936 65.1174 297.376 67.6419 302.314 67.3894C304.754 67.2772 306.942 66.2955 308.681 64.5844C310.897 62.3685 311.374 60.5172 310.897 55.8328C310.28 49.2691 308.625 44.1359 306.1 40.8821C303.997 38.1332 299.761 35.4965 295.918 34.4867C293.562 33.8696 288.821 33.7293 286.1 34.1781Z" fill="#2C2B58"/>
<path d="M30.4132 45.314C24.9432 45.847 19.361 47.4458 14.6765 49.802C7.49537 53.3924 2.53031 58.1048 0.622824 63.0978C0.0337491 64.6686 -0.0223533 65.2015 0.0056979 70.9518C0.0337491 78.0204 0.370364 80.7693 2.67056 92.2698C6.20501 110.054 10.1602 121.077 17.173 132.914C19.8659 137.43 22.2503 140.011 24.5786 140.881C29.2631 142.62 38.0431 142.339 45.8414 140.179C60.0914 136.252 74.0048 126.351 78.8576 116.701L79.8675 114.71L81.2139 119.198C81.9713 121.666 83.1495 126.323 83.8507 129.52C85.5619 137.43 85.5338 139.338 83.6824 141.722C82.4482 143.321 82.9251 145.425 84.8045 146.715C86.0948 147.585 86.9364 147.585 94.6505 146.715C108.311 145.172 115.549 143.405 129.574 138.216C136.811 135.523 139.504 134.233 141.945 132.297C145.479 129.464 146.209 125.649 143.684 123.377C142.59 122.368 141.889 122.143 139.729 122.143C135.633 122.143 130.64 123.349 122.337 126.323C114.174 129.268 109.798 130.278 105.45 130.278C103.234 130.278 102.729 130.194 101.916 129.633C100.597 128.763 99.5314 126.659 98.8862 123.686C98.2971 120.965 96.7543 112.213 96.4738 109.941L96.2774 108.539L99.0545 107.613C106.32 105.145 111.088 101.919 112.659 98.3847C114.118 95.0468 111.818 92.1296 107.694 92.1296C106.769 92.1296 103.543 92.5784 100.541 93.1113C95.4639 94.037 95.0432 94.065 94.7346 93.6162C94.5383 93.3638 94.3699 92.943 94.3699 92.7186C94.3699 92.4662 94.2297 91.3161 94.0894 90.1661C93.6967 87.1647 93.1918 77.824 93.3882 76.9545C93.6126 75.9727 94.0333 75.8044 100.597 74.1495C107.358 72.4665 109.994 71.4847 112.715 69.6615C116.474 67.165 118.185 64.6966 118.213 61.8636C118.213 59.0024 116.811 57.1511 113.585 55.6364C110.752 54.3181 108.115 54.1217 100.794 54.6547C97.3434 54.9071 91.9856 55.1035 88.9 55.1035C81.0176 55.1035 77.399 55.7486 73.3315 57.9365C71.4521 58.9183 69.9373 60.2927 69.208 61.6392C68.8153 62.3124 68.7031 63.1258 68.7311 64.921C68.7592 66.8565 69.18 68.9322 70.8911 76.0008C72.0412 80.7693 72.9669 84.7244 72.9388 84.7524C72.9108 84.7805 72.2936 84.4158 71.5643 83.967C68.8995 82.3121 64.7479 80.9657 60.2877 80.3205C56.5289 79.7595 48.8148 79.8998 44.2144 80.6291C38.7725 81.4425 38.4919 81.162 40.7641 77.263C43.6534 72.3543 45.4767 67.726 46.1219 63.7149C46.6268 60.6013 46.3463 56.3657 45.4486 53.5607C43.3168 46.8568 38.9969 44.5006 30.4132 45.314ZM30.7218 62.5368C34.5087 64.9771 33.8635 71.5689 29.2912 77.2069C27.4678 79.4229 20.6794 85.65 19.8098 85.8744C18.7439 86.1269 18.3231 85.3976 17.9304 82.6206C17.3133 78.5814 16.8925 70.1103 17.2291 68.8761C18.239 65.0613 24.4663 61.2465 28.7301 61.7794C29.2631 61.8355 30.1607 62.2002 30.7218 62.5368ZM46.7671 96.5895C49.0111 96.8981 52.2931 98.3567 54.4811 100.04C56.4167 101.554 58.24 104.023 59.8109 107.249C60.989 109.633 61.1012 110.11 61.2134 112.326C61.3537 115.383 61.0171 116.505 59.334 118.3C53.9201 124.079 38.8566 126.351 29.3192 122.816C26.3177 121.694 26.1214 121.414 24.2139 114.682C22.2784 107.866 22.1942 106.744 23.4004 105.089C26.1494 101.274 34.2562 97.4591 41.2971 96.6456C44.2144 96.309 44.5791 96.309 46.7671 96.5895Z" fill="#2C2B58"/>
<path d="M244.444 57.039C235.692 59.9842 229.689 64.9491 223.602 74.1776C220.993 78.1607 218.945 82.4523 217.262 87.5013C214.682 95.2993 213.644 100.32 213.391 106.295C212.942 117.739 217.038 124.584 226.744 128.595C235.524 132.185 241.246 130.783 249.241 123.069C255.889 116.645 260.068 109.408 260.994 102.704C261.555 98.8336 260.461 94.9627 258.217 92.7187C254.037 88.5392 247.754 89.1563 239.254 94.57C238.188 95.2712 236.926 96.1688 236.505 96.5896C234.289 98.6092 233.42 102.873 234.71 105.285C236.281 108.315 239.339 108.819 243.518 106.8C245.37 105.902 245.594 105.846 246.323 106.211C246.997 106.519 247.109 106.772 247.193 107.922C247.445 112.017 243.967 116.954 239.984 118.104C235.832 119.338 233.392 118.497 231.849 115.355C230.615 112.774 230.278 110.334 230.671 106.884C231.512 100.012 233.897 93.8968 238.357 87.2208C240.853 83.4621 243.658 80.1242 248.623 74.9069C255.047 68.2309 256.955 65.0893 256.73 61.7794C256.59 59.7598 255.608 58.2171 253.785 57.1512C252.607 56.478 252.13 56.3658 249.633 56.3097C247.165 56.2255 246.548 56.3097 244.444 57.039Z" fill="#2C2B58"/>
<path d="M136.166 57.7402C134.287 58.1329 133.081 58.9463 131.931 60.6013C129.013 64.8649 127.779 70.2225 126.769 83.406C125.843 95.5236 126.573 110.026 128.312 113.476C129.097 114.962 130.893 116.449 132.548 116.926C134.427 117.487 135.465 117.487 137.148 116.898C139.084 116.253 142.225 113.083 143.403 110.615C146.545 103.995 147.19 87.2489 144.862 73.4763C143.964 68.287 142.366 61.555 141.692 60.1805C140.598 57.9646 138.859 57.2072 136.166 57.7402Z" fill="#2C2B58"/>
</svg>
