<svg width="45" height="45" viewBox="0 0 45 45" fill="none" xmlns="http://www.w3.org/2000/svg">
<rect width="45" height="45" rx="22.5" fill="#2C2B58"/>
<path d="M24.9305 22.9992L31.3916 16.5412C32.2028 15.7301 32.2028 14.4211 31.3916 13.61C30.5804 12.7988 29.2715 12.7988 28.4603 13.61L21.9992 20.0679L15.5397 13.6084C14.7285 12.7972 13.4196 12.7972 12.6084 13.6084C11.7972 14.4196 11.7972 15.7285 12.6084 16.5397L19.0695 22.9976L12.6084 29.4556C11.7972 30.2668 11.7972 31.5757 12.6084 32.3869C13.4211 33.1981 14.7348 33.1981 15.5397 32.3869L22.0008 25.9289L28.4619 32.3869C29.2731 33.1981 30.582 33.1981 31.3932 32.3869C32.1981 31.5757 32.1981 30.2668 31.3853 29.454L24.9305 22.9992Z" fill="#FD7D6F"/>
</svg>
