<svg width="40" height="40" viewBox="0 0 40 40" fill="none" xmlns="http://www.w3.org/2000/svg">
<rect width="40" height="40" rx="20" fill="#2C2B58"/>
<path d="M9.77783 11.9866C9.77783 11.2584 10.3385 10.668 11.0302 10.668H28.5635C29.2552 10.668 29.8159 11.2584 29.8159 11.9866C29.8159 12.7149 29.2552 13.3053 28.5635 13.3053H11.0302C10.3385 13.3053 9.77783 12.7149 9.77783 11.9866Z" fill="white"/>
<path d="M9.77783 27.8089C9.77783 27.0806 10.3385 26.4902 11.0302 26.4902H28.5635C29.2552 26.4902 29.8159 27.0806 29.8159 27.8089C29.8159 28.5372 29.2552 29.1276 28.5635 29.1276H11.0302C10.3385 29.1276 9.77783 28.5372 9.77783 27.8089Z" fill="white"/>
<path d="M11.0302 18.582C10.3385 18.582 9.77783 19.1724 9.77783 19.9007C9.77783 20.629 10.3385 21.2194 11.0302 21.2194H21.0493C21.7409 21.2194 22.3016 20.629 22.3016 19.9007C22.3016 19.1724 21.7409 18.582 21.0493 18.582H11.0302Z" fill="white"/>
</svg>
