<svg width="20" height="20" viewBox="0 0 20 20" fill="none" xmlns="http://www.w3.org/2000/svg">
<path fill-rule="evenodd" clip-rule="evenodd" d="M10 18.75C12.3206 18.75 14.5462 17.8281 16.1872 16.1872C17.8281 14.5462 18.75 12.3206 18.75 10C18.75 7.67936 17.8281 5.45376 16.1872 3.81282C14.5462 2.17187 12.3206 1.25 10 1.25C7.67936 1.25 5.45376 2.17187 3.81282 3.81282C2.17187 5.45376 1.25 7.67936 1.25 10C1.25 12.3206 2.17187 14.5462 3.81282 16.1872C5.45376 17.8281 7.67936 18.75 10 18.75ZM10 20C12.6522 20 15.1957 18.9464 17.0711 17.0711C18.9464 15.1957 20 12.6522 20 10C20 7.34784 18.9464 4.8043 17.0711 2.92893C15.1957 1.05357 12.6522 0 10 0C7.34784 0 4.8043 1.05357 2.92893 2.92893C1.05357 4.8043 0 7.34784 0 10C0 12.6522 1.05357 15.1957 2.92893 17.0711C4.8043 18.9464 7.34784 20 10 20Z" fill="#BEBDEF"/>
<path fill-rule="evenodd" clip-rule="evenodd" d="M5 10.0008C5 10.1665 5.06585 10.3255 5.18306 10.4427C5.30027 10.5599 5.45924 10.6258 5.625 10.6258H12.8662L10.1825 13.3083C10.1244 13.3664 10.0783 13.4354 10.0468 13.5113C10.0154 13.5872 9.99921 13.6686 9.99921 13.7508C9.99921 13.833 10.0154 13.9143 10.0468 13.9903C10.0783 14.0662 10.1244 14.1352 10.1825 14.1933C10.2406 14.2514 10.3096 14.2975 10.3855 14.3289C10.4614 14.3604 10.5428 14.3766 10.625 14.3766C10.7072 14.3766 10.7886 14.3604 10.8645 14.3289C10.9404 14.2975 11.0094 14.2514 11.0675 14.1933L14.8175 10.4433C14.8757 10.3852 14.9219 10.3163 14.9534 10.2403C14.9849 10.1644 15.0011 10.083 15.0011 10.0008C15.0011 9.91858 14.9849 9.83718 14.9534 9.76125C14.9219 9.68532 14.8757 9.61635 14.8175 9.55829L11.0675 5.80829C11.0094 5.75018 10.9404 5.70408 10.8645 5.67264C10.7886 5.64119 10.7072 5.625 10.625 5.625C10.5428 5.625 10.4614 5.64119 10.3855 5.67264C10.3096 5.70408 10.2406 5.75018 10.1825 5.80829C10.1244 5.8664 10.0783 5.93539 10.0468 6.01131C10.0154 6.08723 9.99921 6.16861 9.99921 6.25079C9.99921 6.33297 10.0154 6.41434 10.0468 6.49027C10.0783 6.56619 10.1244 6.63518 10.1825 6.69329L12.8662 9.37579H5.625C5.45924 9.37579 5.30027 9.44164 5.18306 9.55885C5.06585 9.67606 5 9.83503 5 10.0008Z" fill="#BEBDEF"/>
</svg>
