<svg width="15" height="21" viewBox="0 0 15 21" fill="none" xmlns="http://www.w3.org/2000/svg">
<path d="M8.03477 0.0607072C6.79721 0.438121 6.43902 1.44826 6.34128 4.87828C6.3087 5.97722 6.26527 7.15386 6.24363 7.49797L6.2002 8.1307L6.60183 8.1973C6.81893 8.2306 7.16635 8.35271 7.38346 8.47481L7.77431 8.68572L8.49079 7.87539L9.21812 7.06506L9.66319 5.3001C10.0106 3.93475 10.1191 3.27982 10.1626 2.32519C10.206 1.22625 10.1843 1.07085 9.97804 0.737831C9.64148 0.171711 8.71875 -0.1391 8.03477 0.0607072Z" fill="white"/>
<path d="M1.36297 0.868028C-0.0326636 1.37259 -0.252442 2.11262 0.395904 4.09724C0.714623 5.06151 2.27515 8.47012 2.61586 8.92983C2.75869 9.12043 2.83564 9.10921 4.07745 8.67195C4.80275 8.41406 5.4292 8.16739 5.47317 8.12254C5.56103 8.04404 3.52796 1.79866 3.25321 1.27168C3.17626 1.1147 3.03343 0.935302 2.93449 0.856811C2.70372 0.677413 1.86857 0.677413 1.36297 0.868028Z" fill="white"/>
<path d="M9.86568 7.2156C9.27972 7.62313 8.71507 8.34766 8.52333 8.92505C8.41676 9.26462 8.41676 9.49103 8.50201 9.94384C8.64055 10.6005 8.51267 11.2231 8.16108 11.7665C7.95868 12.0721 7.95868 12.0721 8.16108 12.1854C8.50201 12.3778 9.23709 12.3325 9.72714 12.0834C10.132 11.8684 10.6327 11.2684 12.1562 9.17411C12.4864 8.7212 12.4119 8.38162 11.8365 7.75899C11.2826 7.15899 10.8671 6.87598 10.5368 6.87598C10.4303 6.87598 10.1214 7.02315 9.86568 7.2156Z" fill="white"/>
<path d="M4.4425 9.18564C1.93597 10.0435 1.73888 10.1883 1.07123 11.6477C-0.0233575 14.0318 0.239341 16.271 1.85932 18.3431C4.2236 21.3621 8.43771 21.3955 11.5244 18.4099C12.7503 17.229 13.4179 16.2041 13.8449 14.8116C14.1732 13.7755 14.5235 12.1045 14.5235 11.6366C14.5235 11.3803 13.7244 10.4668 13.3085 10.244C12.805 9.98778 12.6298 10.0547 11.9403 10.7788C10.6706 12.1156 10.1671 12.9622 10.3532 13.4524C10.6597 14.2546 11.9074 14.8116 12.4985 14.3994C13.2757 13.8536 13.3304 13.8313 13.2428 14.0541C12.9801 14.8004 12.203 15.2683 11.3711 15.1904C10.5939 15.1124 10.2765 14.8338 9.8606 13.9092L9.49936 13.096H8.97397C8.67851 13.096 8.13122 12.9957 7.74808 12.8732L7.04758 12.6504L6.46743 12.9178C6.13904 13.0737 5.87634 13.2185 5.87634 13.2519C5.87634 13.2854 6.12809 13.5973 6.43459 13.9426C7.49633 15.1458 8.07647 16.8949 7.70428 17.8084C7.47443 18.3654 7.31028 18.3319 7.37597 17.7415C7.44158 17.1399 7.15699 15.9813 6.78488 15.324C6.37984 14.6222 5.55899 13.7644 4.9022 13.3745C4.59571 13.1851 4.36585 12.9957 4.3768 12.94C4.3987 12.8732 5.02264 12.5501 5.76694 12.2159C7.31027 11.514 7.84662 11.0684 7.84662 10.5003C7.83567 10.0435 7.51823 9.33052 7.15698 8.99627C6.67539 8.53951 6.20474 8.57295 4.4425 9.18564Z" fill="white"/>
</svg>
