<?xml version="1.0"?>
<svg xmlns="http://www.w3.org/2000/svg" xmlns:xlink="http://www.w3.org/1999/xlink" xmlns:svgjs="http://svgjs.com/svgjs" version="1.1" width="512" height="512" x="0" y="0" viewBox="0 0 195 195" style="enable-background:new 0 0 512 512" xml:space="preserve"><g><g xmlns="http://www.w3.org/2000/svg" id="icon_26_"><path d="m136.8 110.1c-5.1-5.7-10.1-11.4-15.2-17.1-.8-.9-1.1-1.7-.9-2.9 1.4-11.6 1.5-23.1-1.1-34.6-2.6-11.7-7.6-22.1-16.6-30.2-1.3-1.2-2.8-2.1-4.1-3.2-.4-.3-.8-.5-1.2-.5s-.8.2-1.2.5c-1.4 1.1-2.8 2.1-4.1 3.2-9.1 8.1-14 18.6-16.6 30.2-2.6 11.4-2.5 23-1.1 34.6.1 1.2-.2 2-.9 2.9-5.1 5.7-10.1 11.4-15.2 17.1-.7.7-1 1.4-.7 2.5 2.5 9.6 4.9 19.2 7.3 28.8.1.2.1.4.2.6.3.7.9 1 1.9 1 1.4 0 2.7-.1 4.1-.1.9 0 1.7 0 2.6.1h.2.1c.4 0 .8 0 1.1-.2.8-.3 1.3-.9 1.8-1.8 2.6-5 5.3-10 8-15 .2-.4.7-.7 1.2-.8h.2 9.2 2.3 2.3 9.4c.6 0 1.3.5 1.6 1 2.7 4.9 5.3 9.9 7.9 14.8.4.7.7 1.4 1.4 1.8.3.1.6.2 1.1.2h.1.2c2.2-.2 4.4-.1 6.6 0 1.2 0 1.8-.4 2.1-1.6 2.4-9.6 4.8-19.2 7.3-28.8-.4-1.1-.7-1.8-1.3-2.5zm-39.3-52.7c-1.5-.1-3.1-.7-4.2-1.8-2.5-2.5-2.5-6.5-.1-8.9 1.2-1.2 2.7-1.7 4.3-1.7 1.5 0 3.1.6 4.3 1.7.1.1.2.2.3.3 2.4 2.5 2.4 6.3 0 8.7-1.3 1.2-3 1.8-4.6 1.7z" fill="#ffffff" data-original="#000000"/><path d="m104.2 160.5c-.6 3.9-1.2 7.7-1.8 11.4-.1.6-.5 1.3-.9 1.5-.3.2-1.2-.3-1.5-.7-1.2-1.4-2.2-3-3.2-4.4-1 1-1.9 2-3 2.9-.4.4-1.3.7-1.8.5-.4-.2-.6-1-.8-1.6-.2-.9-.1-1.9-.5-2.7-1.8-3.4-2.6-7-2.6-10.9-2.2.7-2.5.2-2.7-1.9-.2-2.8-.5-5.6-1.3-8.2-1.5-4.8-.7-9.3 1.3-13.7.2-.5 1.1-1.1 1.7-1.1 7-.1 13.9-.1 20.9 0 .6 0 1.4.5 1.7 1 2.8 5.8 3.3 11.6-.1 17.4-.7 1.2-.9 2.8-.8 4.1.2 2.1 1 4.1 1.4 6.1.1.6.2 1.5-.1 1.8-.3.4-1.3.4-1.8.2-1.3-.2-2.5-.9-4.1-1.7z" fill="#ffffff" data-original="#000000"/></g></g></svg>
