<svg width="17" height="14" viewBox="0 0 17 14" fill="none" xmlns="http://www.w3.org/2000/svg">
<path fill-rule="evenodd" clip-rule="evenodd" d="M9.16986 0.316659L9.23791 0.239595C9.53279 -0.055291 9.99681 -0.0779748 10.3177 0.171544L10.3948 0.239595L16.121 5.96579L16.1548 6.00175L16.2 6.05725L16.2586 6.14825L16.3023 6.24046L16.3312 6.32664L16.3549 6.44762L16.3606 6.54423L16.3583 6.60577L16.344 6.70843L16.3199 6.79957L16.2839 6.89043L16.2411 6.97018L16.1809 7.05586L16.121 7.12266L10.3948 12.8489C10.0753 13.1683 9.55737 13.1683 9.23791 12.8489C8.94302 12.554 8.92034 12.09 9.16986 11.7691L9.23791 11.692L13.5662 7.36226H0.818028C0.366244 7.36226 0 6.99601 0 6.54423C0 6.09244 0.366244 5.7262 0.818028 5.7262H13.5678L9.23791 1.39646C8.94302 1.10158 8.92034 0.637565 9.16986 0.316659L9.23791 0.239595L9.16986 0.316659Z" fill="white"/>
</svg>
