<svg width="35" height="35" viewBox="0 0 35 35" fill="none" xmlns="http://www.w3.org/2000/svg">
<circle cx="17.5" cy="17.5" r="17.5" fill="#ABAAB6"/>
<path d="M20.3444 17.0013L25.5133 11.8337C26.1622 11.1846 26.1622 10.1372 25.5133 9.48809C24.8643 8.83899 23.8172 8.83899 23.1683 9.48809L17.9994 14.6557L12.8317 9.48683C12.1828 8.83772 11.1357 8.83772 10.4867 9.48683C9.83776 10.1359 9.83776 11.1833 10.4867 11.8324L15.6556 17L10.4867 22.1676C9.83776 22.8167 9.83776 23.8641 10.4867 24.5132C11.1369 25.1623 12.1878 25.1623 12.8317 24.5132L18.0006 19.3456L23.1695 24.5132C23.8185 25.1623 24.8656 25.1623 25.5145 24.5132C26.1585 23.8641 26.1585 22.8167 25.5082 22.1663L20.3444 17.0013Z" fill="white"/>
</svg>
