<svg width="12" height="11" viewBox="0 0 12 11" fill="none" xmlns="http://www.w3.org/2000/svg">
<path d="M0.917275 6.36334C0.519089 6.36334 0.196289 6.72604 0.196289 7.17348C0.196289 7.46302 0.331467 7.71708 0.53477 7.86031L2.47251 10.0376C2.75406 10.3541 3.21057 10.3541 3.49213 10.0376C3.7737 9.72127 3.7737 9.20829 3.49213 8.89194L2.68375 7.98361H8.12717C8.52529 7.98361 8.84815 7.62091 8.84815 7.17348C8.84815 6.72604 8.52529 6.36334 8.12717 6.36334H0.952927C0.946352 6.36326 0.939776 6.36326 0.933201 6.36334H0.917275Z" fill="white"/>
<path d="M11.0216 4.76903C11.4198 4.76903 11.7426 4.40633 11.7426 3.95889C11.7426 3.66935 11.6075 3.41529 11.4042 3.27204L9.46646 1.0947C9.18484 0.778328 8.72839 0.778328 8.44677 1.0947C8.16522 1.41108 8.16522 1.92403 8.44677 2.24041L9.25521 3.14875H3.81181C3.41361 3.14875 3.09082 3.51146 3.09082 3.95889C3.09082 4.40633 3.41361 4.76903 3.81181 4.76903H10.986C10.9926 4.76911 10.9991 4.76911 11.0058 4.76903H11.0216Z" fill="white"/>
</svg>
