<svg width="12" height="12" viewBox="0 0 12 12" fill="none" xmlns="http://www.w3.org/2000/svg">
<path d="M5.78021 0C2.58811 0 0 2.58904 0 5.78021C0 8.97324 2.58811 11.5604 5.78021 11.5604C8.97231 11.5604 11.5604 8.97324 11.5604 5.78021C11.5604 2.58904 8.97231 0 5.78021 0ZM5.78021 2.5638C6.32084 2.5638 6.75911 3.00207 6.75911 3.54271C6.75911 4.08334 6.32084 4.52161 5.78021 4.52161C5.23957 4.52161 4.8013 4.08334 4.8013 3.54271C4.8013 3.00207 5.23957 2.5638 5.78021 2.5638ZM7.08542 8.48385C7.08542 8.63831 6.96019 8.76354 6.80573 8.76354H4.75469C4.60023 8.76354 4.475 8.63831 4.475 8.48385V7.92448C4.475 7.77002 4.60023 7.64479 4.75469 7.64479H5.03438V6.15312H4.75469C4.60023 6.15312 4.475 6.02789 4.475 5.87344V5.31406C4.475 5.15961 4.60023 5.03438 4.75469 5.03438H6.24635C6.40081 5.03438 6.52604 5.15961 6.52604 5.31406V7.64479H6.80573C6.96019 7.64479 7.08542 7.77002 7.08542 7.92448V8.48385Z" fill="#423EF5"/>
</svg>
