<svg width="31" height="29" viewBox="0 0 31 29" fill="none" xmlns="http://www.w3.org/2000/svg">
<path d="M28.5301 1.02881L17.2363 9.45119L19.3253 4.48194L28.5301 1.02881Z" fill="#E2761B" stroke="#E2761B" stroke-linecap="round" stroke-linejoin="round"/>
<path d="M2.45898 1.02881L13.662 9.53089L11.6753 4.48194L2.45898 1.02881Z" fill="#E4761B" stroke="#E4761B" stroke-linecap="round" stroke-linejoin="round"/>
<path d="M24.4667 20.5518L21.459 25.1792L27.8948 26.9568L29.745 20.6544L24.4667 20.5518Z" fill="#E4761B" stroke="#E4761B" stroke-linecap="round" stroke-linejoin="round"/>
<path d="M1.2666 20.6544L3.10541 26.9568L9.54122 25.1792L6.53346 20.5518L1.2666 20.6544Z" fill="#E4761B" stroke="#E4761B" stroke-linecap="round" stroke-linejoin="round"/>
<path d="M9.17846 12.7337L7.38477 15.458L13.7749 15.743L13.5482 8.84766L9.17846 12.7337Z" fill="#E4761B" stroke="#E4761B" stroke-linecap="round" stroke-linejoin="round"/>
<path d="M21.8105 12.7333L17.3842 8.76758L17.2363 15.7426L23.6156 15.4577L21.8105 12.7333Z" fill="#E4761B" stroke="#E4761B" stroke-linecap="round" stroke-linejoin="round"/>
<path d="M9.54102 25.1797L13.3774 23.2989L10.063 20.7002L9.54102 25.1797Z" fill="#E4761B" stroke="#E4761B" stroke-linecap="round" stroke-linejoin="round"/>
<path d="M17.6113 23.2989L21.4591 25.1797L20.9257 20.7002L17.6113 23.2989Z" fill="#E4761B" stroke="#E4761B" stroke-linecap="round" stroke-linejoin="round"/>
<path d="M21.4591 25.1796L17.6113 23.2988L17.918 25.8179L17.8837 26.8775L21.4591 25.1796Z" fill="#D7C1B3" stroke="#D7C1B3" stroke-linecap="round" stroke-linejoin="round"/>
<path d="M9.54102 25.1796L13.1164 26.8775L13.0936 25.8179L13.3774 23.2988L9.54102 25.1796Z" fill="#D7C1B3" stroke="#D7C1B3" stroke-linecap="round" stroke-linejoin="round"/>
<path d="M13.1734 19.0362L9.97266 18.09L12.2312 17.0527L13.1734 19.0362Z" fill="#233447" stroke="#233447" stroke-linecap="round" stroke-linejoin="round"/>
<path d="M17.8154 19.0362L18.7577 17.0527L21.0276 18.09L17.8154 19.0362Z" fill="#233447" stroke="#233447" stroke-linecap="round" stroke-linejoin="round"/>
<path d="M9.54096 25.1792L10.0858 20.5518L6.5332 20.6544L9.54096 25.1792Z" fill="#CD6116" stroke="#CD6116" stroke-linecap="round" stroke-linejoin="round"/>
<path d="M20.9141 20.5518L21.4589 25.1792L24.4666 20.6544L20.9141 20.5518Z" fill="#CD6116" stroke="#CD6116" stroke-linecap="round" stroke-linejoin="round"/>
<path d="M23.6156 15.458L17.2363 15.743L17.8268 19.0367L18.769 17.0533L21.039 18.0906L23.6156 15.458Z" fill="#CD6116" stroke="#CD6116" stroke-linecap="round" stroke-linejoin="round"/>
<path d="M9.9728 18.0906L12.2427 17.0533L13.1736 19.0367L13.7749 15.743L7.38477 15.458L9.9728 18.0906Z" fill="#CD6116" stroke="#CD6116" stroke-linecap="round" stroke-linejoin="round"/>
<path d="M7.38477 15.458L10.0636 20.7002L9.9728 18.0906L7.38477 15.458Z" fill="#E4751F" stroke="#E4751F" stroke-linecap="round" stroke-linejoin="round"/>
<path d="M21.0394 18.0906L20.9258 20.7002L23.616 15.458L21.0394 18.0906Z" fill="#E4751F" stroke="#E4751F" stroke-linecap="round" stroke-linejoin="round"/>
<path d="M13.7752 15.7427L13.1738 19.0364L13.9231 22.9225L14.0932 17.8053L13.7752 15.7427Z" fill="#E4751F" stroke="#E4751F" stroke-linecap="round" stroke-linejoin="round"/>
<path d="M17.2358 15.7427L16.9297 17.7938L17.0656 22.9225L17.8262 19.0364L17.2358 15.7427Z" fill="#E4751F" stroke="#E4751F" stroke-linecap="round" stroke-linejoin="round"/>
<path d="M17.8271 19.0365L17.0664 22.9225L17.6112 23.2987L20.9256 20.7L21.0393 18.0903L17.8271 19.0365Z" fill="#F6851B" stroke="#F6851B" stroke-linecap="round" stroke-linejoin="round"/>
<path d="M9.97266 18.0903L10.0635 20.7L13.3779 23.2987L13.9227 22.9225L13.1734 19.0365L9.97266 18.0903Z" fill="#F6851B" stroke="#F6851B" stroke-linecap="round" stroke-linejoin="round"/>
<path d="M17.883 26.8776L17.9173 25.8179L17.6335 25.5667H13.3545L13.0936 25.8179L13.1164 26.8776L9.54102 25.1797L10.7893 26.205L13.3203 27.9717H17.6677L20.2101 26.205L21.4584 25.1797L17.883 26.8776Z" fill="#C0AD9E" stroke="#C0AD9E" stroke-linecap="round" stroke-linejoin="round"/>
<path d="M17.6108 23.2985L17.066 22.9224H13.9224L13.3776 23.2985L13.0938 25.8176L13.3547 25.5664H17.6337L17.9175 25.8176L17.6108 23.2985Z" fill="#161616" stroke="#161616" stroke-linecap="round" stroke-linejoin="round"/>
<path d="M29.0073 9.99823L29.9719 5.34837L28.5305 1.02881L17.6113 9.1662L21.8109 12.7334L27.747 14.4772L29.0639 12.9387L28.4963 12.5287L29.4042 11.6967L28.7007 11.1497L29.6087 10.4541L29.0073 9.99823Z" fill="#763D16" stroke="#763D16" stroke-linecap="round" stroke-linejoin="round"/>
<path d="M1.02832 5.34837L1.99284 9.99823L1.38009 10.4541L2.28807 11.1497L1.59595 11.6967L2.50393 12.5287L1.9363 12.9387L3.24174 14.4772L9.17788 12.7334L13.3774 9.1662L2.45825 1.02881L1.02832 5.34837Z" fill="#763D16" stroke="#763D16" stroke-linecap="round" stroke-linejoin="round"/>
<path d="M27.7471 14.4772L21.8109 12.7334L23.616 15.4577L20.9258 20.6999L24.4669 20.6546H29.7452L27.7471 14.4772Z" fill="#F6851B" stroke="#F6851B" stroke-linecap="round" stroke-linejoin="round"/>
<path d="M9.17803 12.7334L3.24189 14.4772L1.2666 20.6546H6.53346L10.0632 20.6999L7.38434 15.4577L9.17803 12.7334Z" fill="#F6851B" stroke="#F6851B" stroke-linecap="round" stroke-linejoin="round"/>
<path d="M17.2363 15.7427L17.6109 9.16619L19.3367 4.48193H11.6748L13.3777 9.16619L13.7746 15.7427L13.9111 17.8168L13.9225 22.9225H17.0662L17.089 17.8168L17.2363 15.7427Z" fill="#F6851B" stroke="#F6851B" stroke-linecap="round" stroke-linejoin="round"/>
</svg>
