<svg width="35" height="35" viewBox="0 0 35 35" fill="none" xmlns="http://www.w3.org/2000/svg">
<circle cx="17.5" cy="17.5" r="17.5" fill="white"/>
<path d="M21.9792 12.3188C22.2039 12.1121 22.5028 11.9978 22.813 12C23.1232 12.0023 23.4203 12.121 23.6417 12.331C23.8631 12.541 23.9914 12.8259 23.9996 13.1257C24.0078 13.4254 23.8952 13.7165 23.6856 13.9376L17.3226 21.6305C17.2132 21.7444 17.0812 21.8358 16.9344 21.8993C16.7876 21.9627 16.629 21.9969 16.4683 21.9998C16.3075 22.0027 16.1478 21.9742 15.9986 21.916C15.8495 21.8579 15.714 21.7712 15.6003 21.6613L11.3807 17.5821C11.2632 17.4762 11.1689 17.3485 11.1035 17.2067C11.0382 17.0649 11.003 16.9118 11.0002 16.7565C10.9974 16.6013 11.0269 16.4471 11.087 16.3031C11.1472 16.1591 11.2367 16.0283 11.3503 15.9185C11.4639 15.8087 11.5992 15.7222 11.7481 15.664C11.897 15.6059 12.0566 15.5773 12.2171 15.5801C12.3777 15.5828 12.5361 15.6168 12.6828 15.68C12.8295 15.7432 12.9616 15.8343 13.0711 15.9479L16.4105 19.1746L21.9489 12.3527C21.9589 12.3409 21.9696 12.3295 21.9808 12.3188H21.9792Z" fill="#6589FF"/>
</svg>
