<svg width="192" height="192" viewBox="0 0 192 192" fill="none" xmlns="http://www.w3.org/2000/svg">
<circle cx="96" cy="96" r="96" fill="#39FF71"/>
<path d="M98.2106 38.1886C95.8094 38.5957 94.3886 39.9998 93.4663 42.8828C92.4526 46.0649 91.7298 50.9503 91.3392 57.2148C91.1814 59.7655 89.9268 82.9294 89.9268 83.3116V83.6938L90.5748 83.7437C92.7933 83.9181 95.4105 84.8238 97.4462 86.1282C98.169 86.5851 98.3851 86.6682 98.6759 86.5934C98.8587 86.5519 104.442 80.279 105.78 78.6174C107.691 76.2495 108.372 74.6376 109.743 69.2205C111.214 63.4129 112.02 58.2202 112.36 52.3627C112.477 50.2524 112.46 47.3777 112.327 46.3225C111.662 41.3624 108.671 39.1108 101.542 38.2301C100.471 38.0972 98.8753 38.0805 98.2106 38.1886Z" fill="white"/>
<path d="M66.6198 43.4312C62.8144 43.722 59.8398 44.9267 57.5882 47.0703C56.6576 47.951 56.1757 48.5908 55.727 49.5296C54.7798 51.5319 54.8297 53.3764 55.943 57.7965C57.0232 62.1003 58.6517 66.404 61.4517 72.3363C63.18 76.0003 67.4424 84.425 68.7219 86.7098C69.827 88.6789 70.0929 89.0944 70.2923 89.1774C70.5083 89.2605 70.6412 89.2356 71.3641 88.9946C79.1411 86.3692 85.5804 84.1093 85.7133 83.9597C85.7881 83.86 85.8546 83.7105 85.8546 83.6191C85.8546 83.3532 83.1792 74.8869 81.8331 70.8823C79.972 65.3489 76.8229 56.2096 74.43 49.405C73.325 46.2727 72.9344 45.525 71.9125 44.5695C70.6994 43.4562 69.5279 43.1986 66.6198 43.4312Z" fill="white"/>
<path d="M112.975 78.8999C111.313 79.199 109.759 80.2292 107.117 82.7882C103.877 85.9288 102.414 88.0724 101.766 90.6563C101.367 92.2432 101.417 93.4313 101.982 95.4503C102.398 96.9707 102.506 97.8015 102.447 99.0478C102.323 101.515 101.218 103.95 99.0824 106.442L98.6587 106.941L99.0492 107.182C102.647 109.433 108.363 108.528 111.836 105.163C112.509 104.506 112.817 104.133 115.933 100.086C118.591 96.6384 119.78 95.1429 121.35 93.2984C122.962 91.4041 123.61 90.5317 124.017 89.7174C124.341 89.0611 124.366 88.9614 124.366 88.3299C124.366 87.7234 124.341 87.5988 124.059 87.0338C123.892 86.7015 123.502 86.1033 123.186 85.7128C122.372 84.6825 118.849 81.1847 117.968 80.5366C116.198 79.2156 114.429 78.6423 112.975 78.8999Z" fill="white"/>
<path d="M89.0533 88.2054C87.5328 88.5211 83.1125 89.8255 79.6229 91.0053C75.7344 92.3097 68.9876 94.8936 67.9241 95.4835C67.0683 95.9654 66.171 96.6883 65.2072 97.6936C63.7282 99.2223 62.6397 100.901 61.1026 103.991C58.934 108.362 57.7293 112.458 57.3055 116.953C57.1393 118.639 57.1892 121.946 57.3969 123.516C58.261 130.088 60.978 136.045 65.6641 141.67C73.4162 150.976 83.6942 155.072 95.5757 153.584C106.959 152.164 116.921 146.123 125.363 135.522C130.381 129.224 133.148 122.262 135.2 110.804C135.865 107.115 136.222 104.648 136.164 104.158C136.089 103.543 135.782 102.67 135.458 102.164C134.81 101.15 129.957 97.0123 128.645 96.3476C127.431 95.7328 126.252 95.7079 125.155 96.2645C124.54 96.5802 124.382 96.7215 122.122 99.1309C117.968 103.568 116.555 105.271 114.619 108.212C112.451 111.502 112.027 113.305 112.949 115.199C113.232 115.773 113.44 116.039 114.137 116.736C115.409 118.024 117.594 119.57 118.757 120.018C120.593 120.733 122.986 120.658 124.582 119.852C125.28 119.503 125.786 119.154 127.672 117.758C128.528 117.119 129.259 116.628 129.293 116.653C129.401 116.761 128.977 118.157 128.595 118.938C128.387 119.37 128.055 119.952 127.864 120.226C127.398 120.874 126.343 121.888 125.662 122.345C122.612 124.405 117.943 124.771 114.81 123.209C113.938 122.768 113.381 122.378 112.667 121.697C111.412 120.5 110.756 119.254 109.617 115.914C109.194 114.676 108.762 113.48 108.662 113.239C108.33 112.499 108.388 112.507 105.513 112.532C102.131 112.566 101.492 112.458 98.6915 111.369C96.2321 110.405 95.8166 110.289 94.911 110.281C94.4789 110.281 93.8973 110.322 93.6231 110.381C93.0332 110.513 91.6706 111.128 89.6931 112.159C88.156 112.964 88.0147 113.089 88.0147 113.662C88.0147 114.119 88.156 114.327 88.9037 114.967C90.9145 116.695 93.1911 119.47 94.7697 122.104C97.3039 126.358 98.733 130.836 98.733 134.566C98.733 136.893 98.2345 138.662 97.2042 140.025C96.8635 140.474 95.9662 141.296 95.8166 141.296C95.7834 141.296 95.8166 141.08 95.8748 140.814C96.93 136.236 96.016 130.578 93.4237 125.635C92.0112 122.935 90.3162 120.65 88.1061 118.448C85.7049 116.055 83.0793 114.186 80.0549 112.699C78.3267 111.851 78.3018 111.66 79.8056 110.987C80.3208 110.754 82.0158 110.007 83.5695 109.325C90.0171 106.501 94.1133 104.531 95.5757 103.576C97.038 102.612 98.2179 101.216 98.6499 99.9369C99.2565 98.1007 99.0072 96.5055 97.7027 93.8135C96.041 90.3905 94.4789 88.7454 92.3519 88.197C91.5376 87.9893 90.0919 87.9893 89.0533 88.2054Z" fill="white"/>
</svg>
