<svg width="90" height="90" viewBox="0 0 90 90" fill="none" xmlns="http://www.w3.org/2000/svg">
<circle cx="45" cy="45" r="45" fill="#39FF71"/>
<path d="M57.2515 32.5013C57.8326 31.948 58.6058 31.6422 59.4081 31.6483C60.2104 31.6544 60.9789 31.9719 61.5516 32.5338C62.1242 33.0957 62.4562 33.8581 62.4774 34.6602C62.4986 35.4622 62.2074 36.2411 61.6652 36.8325L45.2065 57.4163C44.9235 57.7211 44.5819 57.9657 44.2022 58.1355C43.8225 58.3053 43.4124 58.3968 42.9965 58.4045C42.5806 58.4122 42.1675 58.336 41.7817 58.1803C41.396 58.0247 41.0456 57.7929 40.7515 57.4988L29.8367 46.584C29.5328 46.3008 29.289 45.9592 29.1199 45.5797C28.9508 45.2002 28.8599 44.7906 28.8525 44.3752C28.8452 43.9598 28.9216 43.5471 29.0772 43.1619C29.2328 42.7767 29.4644 42.4268 29.7582 42.133C30.052 41.8392 30.4019 41.6076 30.7871 41.452C31.1724 41.2964 31.585 41.22 32.0004 41.2273C32.4158 41.2346 32.8254 41.3256 33.2049 41.4947C33.5844 41.6638 33.926 41.9075 34.2092 42.2115L42.847 50.8451L57.1731 32.592C57.1989 32.5602 57.2264 32.5299 57.2556 32.5013H57.2515Z" fill="white"/>
</svg>
