<svg width="31" height="31" viewBox="0 0 31 31" fill="none" xmlns="http://www.w3.org/2000/svg">
<g clip-path="url(#clip0_4_100)">
<path d="M26.2428 5.80217C24.2666 4.91092 22.1482 4.25217 19.933 3.87759C19.9133 3.8738 19.8929 3.87624 19.8746 3.88457C19.8563 3.89291 19.8411 3.90671 19.831 3.92409C19.5597 4.40071 19.2575 5.02201 19.0456 5.51284C16.6962 5.16181 14.3077 5.16181 11.9583 5.51284C11.7223 4.96887 11.4563 4.43846 11.1613 3.92409C11.1513 3.9065 11.1362 3.89238 11.1179 3.88361C11.0997 3.87484 11.0792 3.87184 11.0593 3.87501C8.84534 4.24959 6.72701 4.90834 4.74947 5.80088C4.73246 5.80802 4.71803 5.82019 4.70814 5.83576C0.688469 11.7451 -0.413323 17.5085 0.127885 23.1996C0.129391 23.2136 0.133718 23.2271 0.140602 23.2393C0.147486 23.2515 0.156783 23.2622 0.167927 23.2707C2.5141 24.9788 5.13095 26.28 7.90889 27.1198C7.92825 27.1258 7.94896 27.1258 7.96832 27.1198C7.98767 27.1138 8.00477 27.1021 8.01738 27.0863C8.61516 26.2868 9.14488 25.4387 9.60097 24.5507C9.6073 24.5386 9.61095 24.5252 9.61167 24.5115C9.61239 24.4979 9.61016 24.4842 9.60514 24.4715C9.60012 24.4587 9.59242 24.4472 9.58256 24.4377C9.5727 24.4282 9.56092 24.4209 9.54801 24.4164C8.7136 24.1022 7.90512 23.723 7.13001 23.2823C7.11608 23.2743 7.10435 23.2631 7.09585 23.2495C7.08736 23.2359 7.08238 23.2204 7.08136 23.2044C7.08033 23.1883 7.0833 23.1723 7.08999 23.1578C7.09667 23.1432 7.10688 23.1305 7.11968 23.1208C7.28243 23.0007 7.44518 22.8754 7.60018 22.7501C7.61413 22.7389 7.63093 22.7317 7.64872 22.7294C7.66651 22.7271 7.68458 22.7298 7.70093 22.7372C12.7733 25.0157 18.2668 25.0157 23.2797 22.7372C23.2961 22.7294 23.3144 22.7263 23.3324 22.7284C23.3504 22.7304 23.3675 22.7375 23.3818 22.7488C23.5368 22.8754 23.6982 23.0007 23.8623 23.1208C23.8752 23.1303 23.8856 23.1428 23.8925 23.1573C23.8994 23.1717 23.9026 23.1877 23.9018 23.2037C23.901 23.2196 23.8963 23.2352 23.8881 23.2489C23.8798 23.2627 23.8683 23.2741 23.8545 23.2823C23.0821 23.7266 22.2787 24.1025 21.4352 24.4151C21.4223 24.4198 21.4105 24.4272 21.4006 24.4368C21.3907 24.4465 21.383 24.4581 21.378 24.4709C21.373 24.4838 21.3708 24.4975 21.3715 24.5113C21.3723 24.525 21.3759 24.5385 21.3823 24.5507C21.8473 25.4381 22.3794 26.2828 22.9646 27.085C22.9767 27.1014 22.9937 27.1137 23.0131 27.1202C23.0325 27.1267 23.0534 27.127 23.0731 27.1211C25.8558 26.2837 28.4769 24.9818 30.8256 23.2707C30.8371 23.2627 30.8467 23.2523 30.8538 23.2403C30.861 23.2282 30.8654 23.2148 30.867 23.2009C31.5128 16.6212 29.7846 10.9043 26.2828 5.83834C26.2743 5.82188 26.26 5.80904 26.2428 5.80217ZM10.3592 19.7341C8.83243 19.7341 7.57305 18.3533 7.57305 16.6599C7.57305 14.9653 8.80789 13.5858 10.3592 13.5858C11.9221 13.5858 13.1698 14.9769 13.1453 16.6599C13.1453 18.3546 11.9105 19.7341 10.3592 19.7341V19.7341ZM20.6602 19.7341C19.1322 19.7341 17.8741 18.3533 17.8741 16.6599C17.8741 14.9653 19.1076 13.5858 20.6602 13.5858C22.2231 13.5858 23.4709 14.9769 23.4463 16.6599C23.4463 18.3546 22.2244 19.7341 20.6602 19.7341V19.7341Z" fill="#2C2B58"/>
</g>
<defs>
<clipPath id="clip0_4_100">
<rect width="31" height="31" fill="white"/>
</clipPath>
</defs>
</svg>
