<svg width="55" height="78" viewBox="0 0 55 78" fill="none" xmlns="http://www.w3.org/2000/svg">
<path d="M29.683 0.0472718C28.0816 0.318787 27.134 1.25524 26.5189 3.17801C25.8429 5.30027 25.3608 8.55845 25.1003 12.7365C24.995 14.4376 24.1583 29.8863 24.1583 30.1412V30.3961L24.5905 30.4293C26.07 30.5457 27.8156 31.1497 29.1732 32.0196C29.6553 32.3244 29.7994 32.3798 29.9933 32.3299C30.1152 32.3022 33.839 28.1187 34.7312 27.0104C36.0057 25.4312 36.4601 24.3562 37.3744 20.7434C38.3552 16.8702 38.8927 13.4069 39.1199 9.50044C39.1975 8.093 39.1864 6.17576 39.0978 5.47204C38.6545 2.16398 36.6596 0.662338 31.9051 0.0749775C31.1903 -0.0136806 30.1263 -0.0247629 29.683 0.0472718Z" fill="white"/>
<path d="M8.61477 3.54376C6.07683 3.7377 4.09303 4.54116 2.59132 5.97077C1.97069 6.55813 1.64929 6.9848 1.35006 7.61095C0.718342 8.94636 0.751591 10.1765 1.49413 13.1244C2.21451 15.9947 3.30061 18.865 5.16805 22.8214C6.32065 25.265 9.16337 30.8837 10.0167 32.4075C10.7537 33.7208 10.9311 33.9978 11.0641 34.0532C11.2081 34.1086 11.2968 34.092 11.7789 33.9313C16.9656 32.1803 21.2601 30.6731 21.3488 30.5734C21.3987 30.5069 21.443 30.4072 21.443 30.3462C21.443 30.1689 19.6587 24.5225 18.761 21.8517C17.5197 18.1613 15.4196 12.066 13.8236 7.52783C13.0866 5.43882 12.8262 4.94012 12.1446 4.30289C11.3356 3.56038 10.5542 3.38861 8.61477 3.54376Z" fill="white"/>
<path d="M39.53 27.1988C38.4217 27.3983 37.3855 28.0854 35.6233 29.7921C33.4622 31.8866 32.4869 33.3163 32.0547 35.0395C31.7887 36.0979 31.822 36.8903 32.1988 38.2368C32.4758 39.2508 32.5479 39.8049 32.5091 40.6361C32.426 42.2818 31.689 43.9054 30.2648 45.5677L29.9822 45.9002L30.2427 46.0609C32.6421 47.5625 36.4545 46.9585 38.7708 44.7144C39.2197 44.2766 39.4247 44.0273 41.5027 41.3287C43.2759 39.0292 44.0684 38.0318 45.1157 36.8016C46.1907 35.5383 46.6229 34.9564 46.8944 34.4134C47.1106 33.9757 47.1272 33.9092 47.1272 33.488C47.1272 33.0835 47.1106 33.0004 46.9222 32.6236C46.8113 32.402 46.5509 32.003 46.3403 31.7426C45.7973 31.0555 43.4477 28.7227 42.8603 28.2904C41.68 27.4094 40.4997 27.0271 39.53 27.1988Z" fill="white"/>
<path d="M23.5764 33.4049C22.5624 33.6155 19.6144 34.4855 17.287 35.2723C14.6936 36.1423 10.194 37.8655 9.48475 38.259C8.91399 38.5804 8.31553 39.0624 7.67273 39.7329C6.68637 40.7525 5.96045 41.8718 4.9353 43.9331C3.48901 46.8477 2.68551 49.5795 2.4029 52.5773C2.29207 53.7021 2.32532 55.9075 2.46386 56.9547C3.04016 61.3378 4.85218 65.3108 7.9775 69.0621C13.1476 75.2682 20.0022 78 27.9264 77.0081C35.518 76.0606 42.1621 72.0322 47.7921 64.9617C51.1391 60.7615 52.9844 56.118 54.3531 48.4768C54.7964 46.0166 55.0347 44.3708 54.9959 44.0439C54.946 43.6339 54.741 43.052 54.5249 42.714C54.0927 42.038 50.8565 39.2785 49.981 38.8352C49.1719 38.4252 48.3851 38.4086 47.6536 38.7798C47.2436 38.9904 47.1383 39.0846 45.631 40.6915C42.8603 43.6505 41.9183 44.7864 40.6272 46.748C39.1809 48.9423 38.8983 50.1447 39.5134 51.4081C39.7018 51.7904 39.8403 51.9677 40.3058 52.4332C41.1536 53.2921 42.611 54.3227 43.3868 54.6219C44.6114 55.0985 46.2073 55.0486 47.2713 54.5111C47.7367 54.2784 48.0748 54.0457 49.3326 53.1147C49.9034 52.6881 50.391 52.3611 50.4132 52.3778C50.4852 52.4498 50.2026 53.3807 49.9477 53.9016C49.8092 54.1897 49.5875 54.5776 49.4601 54.7605C49.1498 55.1927 48.446 55.8687 47.9916 56.1734C45.958 57.5476 42.8437 57.7915 40.7546 56.7497C40.1728 56.456 39.8015 56.1956 39.325 55.7412C38.4882 54.9433 38.0504 54.1121 37.2913 51.8846C37.0087 51.059 36.7205 50.2611 36.654 50.1004C36.4324 49.6072 36.4712 49.6127 34.5538 49.6294C32.2985 49.6515 31.8718 49.5795 30.0044 48.8536C28.3642 48.2108 28.0871 48.1333 27.4831 48.1277C27.1949 48.1277 26.807 48.1554 26.6242 48.1942C26.2307 48.2829 25.3219 48.6929 24.0031 49.38C22.978 49.9175 22.8838 50.0006 22.8838 50.383C22.8838 50.6877 22.978 50.8263 23.4767 51.2529C24.8177 52.4055 26.336 54.2562 27.3889 56.0128C29.079 58.8498 30.0321 61.8365 30.0321 64.3245C30.0321 65.876 29.6996 67.0562 29.0125 67.965C28.7853 68.2642 28.1868 68.8128 28.0871 68.8128C28.0649 68.8128 28.0871 68.6687 28.1259 68.4914C28.8296 65.4382 28.2201 61.6647 26.4912 58.3677C25.5491 56.5669 24.4187 55.0431 22.9447 53.5747C21.3433 51.9788 19.5922 50.7321 17.5751 49.7402C16.4225 49.175 16.4059 49.0476 17.4089 48.5987C17.7525 48.4436 18.8829 47.9449 19.9191 47.4905C24.2192 45.6065 26.9511 44.2933 27.9264 43.656C28.9017 43.0133 29.6885 42.0823 29.9767 41.229C30.3812 40.0044 30.215 38.9405 29.345 37.1452C28.2367 34.8623 27.1949 33.7651 25.7763 33.3994C25.2333 33.2609 24.2691 33.2609 23.5764 33.4049Z" fill="white"/>
</svg>
