<svg width="90" height="90" viewBox="0 0 90 90" fill="none" xmlns="http://www.w3.org/2000/svg">
<circle cx="45" cy="45" r="45" fill="#FF3981"/>
<path d="M34.6154 23.5098C35.0215 23.9161 35.2497 24.4671 35.2497 25.0417C35.2497 25.6162 35.0215 26.1672 34.6154 26.5735L30.7305 30.4583H47.7085C51.1367 30.4583 54.488 31.4749 57.3384 33.3795C60.1889 35.2841 62.4105 37.9912 63.7224 41.1585C65.0344 44.3257 65.3776 47.8109 64.7088 51.1732C64.04 54.5356 62.3892 57.6241 59.965 60.0482C57.5409 62.4723 54.4524 64.1231 51.0901 64.7919C47.7278 65.4608 44.2426 65.1175 41.0753 63.8056C37.9081 62.4937 35.201 60.272 33.2964 57.4215C31.3918 54.5711 30.3752 51.2199 30.3752 47.7917C30.3752 47.217 30.6035 46.6659 31.0098 46.2596C31.4161 45.8533 31.9672 45.625 32.5419 45.625C33.1165 45.625 33.6676 45.8533 34.0739 46.2596C34.4802 46.6659 34.7085 47.217 34.7085 47.7917C34.7085 50.3628 35.471 52.8762 36.8994 55.0141C38.3279 57.1519 40.3582 58.8182 42.7336 59.8021C45.1091 60.786 47.7229 61.0435 50.2447 60.5419C52.7664 60.0403 55.0828 58.8021 56.9009 56.9841C58.719 55.166 59.9571 52.8496 60.4587 50.3278C60.9603 47.8061 60.7029 45.1922 59.719 42.8168C58.735 40.4413 57.0688 38.411 54.9309 36.9826C52.7931 35.5541 50.2797 34.7917 47.7085 34.7917H30.7305L34.6154 38.6765C35.01 39.0851 35.2284 39.6324 35.2235 40.2005C35.2185 40.7686 34.9907 41.3121 34.589 41.7138C34.1872 42.1155 33.6438 42.3434 33.0757 42.3483C32.5076 42.3532 31.9603 42.1348 31.5517 41.7402L23.9684 34.1568C23.5622 33.7505 23.334 33.1995 23.334 32.625C23.334 32.0505 23.5622 31.4995 23.9684 31.0932L31.5517 23.5098C31.958 23.1036 32.509 22.8755 33.0835 22.8755C33.658 22.8755 34.209 23.1036 34.6154 23.5098V23.5098Z" fill="white"/>
</svg>
